<?xml version="1.0" encoding="UTF-8"?>
<svg version="1.1" xmlns="http://www.w3.org/2000/svg" width="191" height="160">
<path d="M0 0 C8.32919224 7.08060365 14.39266788 15.75488924 16.05859375 26.75 C16.81506102 36.57167344 15.3302959 44.52616501 12.05859375 53.75 C11.70569829 55.07828976 11.36318282 56.40980808 11.05859375 57.75 C13.03859375 59.4 15.01859375 61.05 17.05859375 62.75 C16.50688009 66.5947546 14.84397044 68.25873547 12.05859375 70.875 C9.16573787 73.52060724 9.16573787 73.52060724 7.05859375 76.75 C2.2260307 76.33578031 0.23180157 74.28586014 -2.94140625 70.75 C-3.90046875 71.1521875 -3.90046875 71.1521875 -4.87890625 71.5625 C-6.39484375 72.1503125 -6.39484375 72.1503125 -7.94140625 72.75 C-8.54984375 73.00265625 -9.15828125 73.2553125 -9.78515625 73.515625 C-21.32428099 77.90738143 -34.57342061 78.02624375 -46.07421875 73.5234375 C-53.58550038 70.00311253 -60.28519395 65.73431845 -64.94140625 58.75 C-65.22901917 56.62080383 -65.22901917 56.62080383 -65.27954102 54.13012695 C-65.3019838 53.19517899 -65.32442657 52.26023102 -65.34754944 51.29695129 C-65.35918625 50.28759018 -65.37082306 49.27822906 -65.3828125 48.23828125 C-65.39658432 47.19608932 -65.41035614 46.1538974 -65.42454529 45.0801239 C-65.44783265 42.87191077 -65.46509022 40.66362711 -65.47680664 38.45532227 C-65.50367112 35.09193831 -65.5785529 31.73172899 -65.65429688 28.36914062 C-65.67096004 26.22137529 -65.68472445 24.07358512 -65.6953125 21.92578125 C-65.72516739 20.92654129 -65.75502228 19.92730133 -65.78578186 18.89778137 C-65.7452599 12.39757058 -64.41493715 9.06108589 -59.8245697 4.42448425 C-43.08426183 -10.46077803 -18.85311374 -13.8371477 0 0 Z M-43.64453125 21.93359375 C-47.69457433 27.60609384 -47.64177882 32.93012209 -46.94140625 39.75 C-45.22581024 45.70584752 -41.9556448 49.27073243 -36.94140625 52.75 C-32.59752289 55.15056712 -28.79172635 54.91441763 -23.94140625 54.75 C-23.61140625 54.09 -23.28140625 53.43 -22.94140625 52.75 C-26.90140625 49.285 -26.90140625 49.285 -30.94140625 45.75 C-29.1371343 42.14145611 -27.49415829 39.93688934 -24.81640625 37 C-24.09195313 36.20078125 -23.3675 35.4015625 -22.62109375 34.578125 C-22.06679687 33.97484375 -21.5125 33.3715625 -20.94140625 32.75 C-17.50190261 33.36198376 -15.4257614 34.67058847 -12.69140625 36.8125 C-11.985 37.36035156 -11.27859375 37.90820312 -10.55078125 38.47265625 C-10.0196875 38.89417969 -9.48859375 39.31570312 -8.94140625 39.75 C-8.25865619 29.00643409 -8.25865619 29.00643409 -12.94140625 19.75 C-17.57014283 15.35863453 -21.55411722 13.65526968 -27.87890625 13.4375 C-35.24595023 13.63395451 -39.06160061 16.42668516 -43.64453125 21.93359375 Z " fill="#fff" transform="translate(142.94140625,45.25)"/>
<path d="M0 0 C7.26 0 14.52 0 22 0 C22 9.9 22 19.8 22 30 C30.91 30 39.82 30 49 30 C48.98839844 27.91816406 48.97679687 25.83632813 48.96484375 23.69140625 C48.95789265 21.68253702 48.95097611 19.67366749 48.94506836 17.66479492 C48.9400292 16.26504772 48.93319784 14.8653058 48.92456055 13.46557617 C48.9124768 11.45754223 48.90730193 9.44947043 48.90234375 7.44140625 C48.89710693 6.23170166 48.89187012 5.02199707 48.88647461 3.77563477 C49 1 49 1 50 0 C57.59 0 65.18 0 73 0 C73 27.06 73 54.12 73 82 C65.08 82 57.16 82 49 82 C49 72.1 49 62.2 49 52 C40.09 52 31.18 52 22 52 C22 61.9 22 71.8 22 82 C16.5859375 82.0309375 16.5859375 82.0309375 11.0625 82.0625 C9.92304932 82.071604 8.78359863 82.08070801 7.60961914 82.09008789 C6.71879639 82.09258545 5.82797363 82.09508301 4.91015625 82.09765625 C3.53549194 82.10551147 3.53549194 82.10551147 2.13305664 82.11352539 C0 82 0 82 -1 81 C-1.10032069 78.5462176 -1.1361818 76.12056624 -1.12939453 73.66625977 C-1.13202301 72.51506149 -1.13202301 72.51506149 -1.13470459 71.34060669 C-1.13912394 68.79085054 -1.13618455 66.24116316 -1.1328125 63.69140625 C-1.13348559 61.92642707 -1.13445565 60.16144798 -1.13571167 58.39646912 C-1.13718881 54.69163127 -1.13503383 50.98681748 -1.13037109 47.28198242 C-1.12467796 42.52577324 -1.12795007 37.76962053 -1.13394356 33.01341343 C-1.13755228 29.36666944 -1.13640907 25.71993889 -1.13381577 22.0731945 C-1.13314714 20.31925385 -1.13397267 18.565312 -1.13629532 16.81137276 C-1.13882647 14.36192708 -1.13497448 11.91257356 -1.12939453 9.46313477 C-1.13141876 8.73318802 -1.13344299 8.00324127 -1.13552856 7.25117493 C-1.11426354 2.22852707 -1.11426354 2.22852707 0 0 Z " fill="#fff" transform="translate(2,38)"/>
<path d="M0 0 C1.32 0 2.64 0 4 0 C4 37.95 4 75.9 4 115 C2.68 115 1.36 115 0 115 C0 77.05 0 39.1 0 0 Z " fill="#fff" transform="translate(184,22)"/>
<path d="M0 0 C7.59 0 15.18 0 23 0 C23 27.06 23 54.12 23 82 C15.08 82 7.16 82 -1 82 C-1 72.1 -1 62.2 -1 52 C-9.91 52 -18.82 52 -28 52 C-28 51.67 -28 51.34 -28 51 C-18.43 51 -8.86 51 1 51 C1 60.9 1 70.8 1 81 C7.93 81 14.86 81 22 81 C22 54.93 22 28.86 22 2 C15.07 2 8.14 2 1 2 C1 11.9 1 21.8 1 32 C-8.57 32 -18.14 32 -28 32 C-28 31.34 -28 30.68 -28 30 C-19.09 30 -10.18 30 -1 30 C-1.01160156 27.91816406 -1.02320312 25.83632813 -1.03515625 23.69140625 C-1.04210735 21.68253702 -1.04902389 19.67366749 -1.05493164 17.66479492 C-1.0599708 16.26504772 -1.06680216 14.8653058 -1.07543945 13.46557617 C-1.0875232 11.45754223 -1.09269807 9.44947043 -1.09765625 7.44140625 C-1.10289307 6.23170166 -1.10812988 5.02199707 -1.11352539 3.77563477 C-1 1 -1 1 0 0 Z " fill="#fff" transform="translate(52,38)"/>
<path d="M0 0 C0.9583374 0.00523682 1.9166748 0.01047363 2.90405273 0.01586914 C4.45576172 0.02070312 4.45576172 0.02070312 6.03881836 0.02563477 C7.12743164 0.03401367 8.21604492 0.04239258 9.33764648 0.05102539 C10.97636719 0.05779297 10.97636719 0.05779297 12.64819336 0.06469727 C15.35723144 0.07652713 18.06616248 0.09300996 20.77514648 0.11352539 C20.77514648 0.77352539 20.77514648 1.43352539 20.77514648 2.11352539 C13.51514648 2.11352539 6.25514648 2.11352539 -1.22485352 2.11352539 C-1.22485352 12.01352539 -1.22485352 21.91352539 -1.22485352 32.11352539 C-10.79485352 32.11352539 -20.36485352 32.11352539 -30.22485352 32.11352539 C-30.22485352 31.45352539 -30.22485352 30.79352539 -30.22485352 30.11352539 C-21.31485352 30.11352539 -12.40485352 30.11352539 -3.22485352 30.11352539 C-3.23645508 28.03168945 -3.24805664 25.94985352 -3.26000977 23.80493164 C-3.26696087 21.79606241 -3.2738774 19.78719288 -3.27978516 17.77832031 C-3.28482431 16.37857311 -3.29165568 14.97883119 -3.30029297 13.57910156 C-3.31237671 11.57106762 -3.31755158 9.56299582 -3.32250977 7.55493164 C-3.32774658 6.34522705 -3.3329834 5.13552246 -3.33837891 3.88916016 C-3.18595865 0.16256675 -3.18595865 0.16256675 0 0 Z " fill="#fff" transform="translate(54.224853515625,37.886474609375)"/>
<path d="M0 0 C1.24546405 2.49092811 0.7767578 3.41080733 0 6 C1.98 7.65 3.96 9.3 6 11 C5.65120368 14.25543229 4.97866739 15.01873107 2.4375 17.25 C1.633125 17.8275 0.82875 18.405 0 19 C0.4640625 18.13375 0.4640625 18.13375 0.9375 17.25 C1.92583364 15.15705816 2.5168613 13.25464725 3 11 C1.02 9.35 -0.96 7.7 -3 6 C-1.125 1.125 -1.125 1.125 0 0 Z " fill="#fff" transform="translate(154,97)"/>
<path d="M0 0 C0.54269531 0.34933594 1.08539063 0.69867188 1.64453125 1.05859375 C2.35996094 1.51363281 3.07539062 1.96867187 3.8125 2.4375 C4.87404297 3.11619141 4.87404297 3.11619141 5.95703125 3.80859375 C10.23783342 6.30504626 14.20791332 6.08278077 19 6 C20.32 6 21.64 6 23 6 C23 6.66 23 7.32 23 8 C7.81554103 8.75816993 7.81554103 8.75816993 2 4 C0.828125 1.859375 0.828125 1.859375 0 0 Z " fill="#fff" transform="translate(100,93)"/>
</svg>
